<mxfile host="app.diagrams.net" modified="2024-05-03T15:38:56.397Z" agent="Mozilla/5.0 (Windows NT 10.0; Win64; x64) AppleWebKit/537.36 (KHTML, like Gecko) Chrome/122.0.0.0 Safari/537.36" etag="eSZSIWdhsAM8TkZmoEDX" version="24.3.1" type="device" pages="4">
  <diagram name="Trang-1" id="yPx5HAASIFkwQmFJgaaJ">
    <mxGraphModel dx="1328" dy="795" grid="1" gridSize="10" guides="1" tooltips="1" connect="1" arrows="1" fold="1" page="1" pageScale="1" pageWidth="827" pageHeight="1169" math="0" shadow="0">
      <root>
        <mxCell id="0" />
        <mxCell id="1" parent="0" />
        <mxCell id="egUh28j0sGmAwzO6A7IN-16" style="edgeStyle=orthogonalEdgeStyle;rounded=0;orthogonalLoop=1;jettySize=auto;html=1;exitX=0.5;exitY=1;exitDx=0;exitDy=0;fontSize=14;" parent="1" source="9ibcDuXSDTYQnRMJRX7T-1" target="egUh28j0sGmAwzO6A7IN-4" edge="1">
          <mxGeometry relative="1" as="geometry" />
        </mxCell>
        <mxCell id="9ibcDuXSDTYQnRMJRX7T-1" value="Набор текстов" style="rounded=0;whiteSpace=wrap;html=1;fontSize=14;" parent="1" vertex="1">
          <mxGeometry x="299" y="110" width="150" height="60" as="geometry" />
        </mxCell>
        <mxCell id="egUh28j0sGmAwzO6A7IN-15" style="edgeStyle=orthogonalEdgeStyle;rounded=0;orthogonalLoop=1;jettySize=auto;html=1;exitX=0.5;exitY=1;exitDx=0;exitDy=0;exitPerimeter=0;entryX=0.5;entryY=0;entryDx=0;entryDy=0;fontSize=14;" parent="1" source="9ibcDuXSDTYQnRMJRX7T-2" target="9ibcDuXSDTYQnRMJRX7T-1" edge="1">
          <mxGeometry relative="1" as="geometry" />
        </mxCell>
        <mxCell id="9ibcDuXSDTYQnRMJRX7T-2" value="Начало" style="strokeWidth=2;html=1;shape=mxgraph.flowchart.terminator;whiteSpace=wrap;fontSize=14;" parent="1" vertex="1">
          <mxGeometry x="299" y="20" width="150" height="60" as="geometry" />
        </mxCell>
        <mxCell id="9ibcDuXSDTYQnRMJRX7T-3" value="Конец" style="strokeWidth=2;html=1;shape=mxgraph.flowchart.terminator;whiteSpace=wrap;fontSize=14;" parent="1" vertex="1">
          <mxGeometry x="299" y="1040" width="150" height="60" as="geometry" />
        </mxCell>
        <mxCell id="e9AX7neEpSEPlqEUsB_L-4" style="edgeStyle=orthogonalEdgeStyle;rounded=0;orthogonalLoop=1;jettySize=auto;html=1;exitX=0.5;exitY=1;exitDx=0;exitDy=0;entryX=0.5;entryY=0;entryDx=0;entryDy=0;fontSize=14;" parent="1" source="egUh28j0sGmAwzO6A7IN-4" target="u482HZDF_oLcWFl7m8r--1" edge="1">
          <mxGeometry relative="1" as="geometry">
            <mxPoint x="374" y="290" as="targetPoint" />
          </mxGeometry>
        </mxCell>
        <mxCell id="egUh28j0sGmAwzO6A7IN-4" value="Для каждого текста" style="shape=loopLimit;whiteSpace=wrap;html=1;fontSize=14;" parent="1" vertex="1">
          <mxGeometry x="299" y="200" width="150" height="60" as="geometry" />
        </mxCell>
        <mxCell id="egUh28j0sGmAwzO6A7IN-21" style="edgeStyle=orthogonalEdgeStyle;rounded=0;orthogonalLoop=1;jettySize=auto;html=1;exitX=0.5;exitY=0;exitDx=0;exitDy=0;entryX=0.5;entryY=0;entryDx=0;entryDy=0;fontSize=14;" parent="1" source="egUh28j0sGmAwzO6A7IN-5" target="egUh28j0sGmAwzO6A7IN-6" edge="1">
          <mxGeometry relative="1" as="geometry" />
        </mxCell>
        <mxCell id="egUh28j0sGmAwzO6A7IN-5" value="Для каждого текста" style="shape=loopLimit;whiteSpace=wrap;html=1;direction=west;fontSize=14;" parent="1" vertex="1">
          <mxGeometry x="299" y="380" width="150" height="60" as="geometry" />
        </mxCell>
        <mxCell id="egUh28j0sGmAwzO6A7IN-22" style="edgeStyle=orthogonalEdgeStyle;rounded=0;orthogonalLoop=1;jettySize=auto;html=1;exitX=0.5;exitY=1;exitDx=0;exitDy=0;entryX=0.5;entryY=0;entryDx=0;entryDy=0;fontSize=14;" parent="1" source="egUh28j0sGmAwzO6A7IN-6" target="egUh28j0sGmAwzO6A7IN-7" edge="1">
          <mxGeometry relative="1" as="geometry" />
        </mxCell>
        <mxCell id="egUh28j0sGmAwzO6A7IN-6" value="Извлечения признаков&lt;div style=&quot;font-size: 14px;&quot;&gt;(TF-IDF)&lt;/div&gt;" style="rounded=0;whiteSpace=wrap;html=1;fontSize=14;" parent="1" vertex="1">
          <mxGeometry x="299" y="470" width="150" height="70" as="geometry" />
        </mxCell>
        <mxCell id="egUh28j0sGmAwzO6A7IN-23" style="edgeStyle=orthogonalEdgeStyle;rounded=0;orthogonalLoop=1;jettySize=auto;html=1;exitX=0.5;exitY=1;exitDx=0;exitDy=0;entryX=0.5;entryY=0;entryDx=0;entryDy=0;fontSize=14;" parent="1" source="egUh28j0sGmAwzO6A7IN-7" target="egUh28j0sGmAwzO6A7IN-8" edge="1">
          <mxGeometry relative="1" as="geometry" />
        </mxCell>
        <mxCell id="u482HZDF_oLcWFl7m8r--2" value="&lt;font style=&quot;font-size: 14px;&quot;&gt;70%&lt;/font&gt;" style="edgeLabel;html=1;align=center;verticalAlign=middle;resizable=0;points=[];" parent="egUh28j0sGmAwzO6A7IN-23" vertex="1" connectable="0">
          <mxGeometry x="0.3017" y="-1" relative="1" as="geometry">
            <mxPoint y="-19" as="offset" />
          </mxGeometry>
        </mxCell>
        <mxCell id="egUh28j0sGmAwzO6A7IN-28" style="edgeStyle=orthogonalEdgeStyle;rounded=0;orthogonalLoop=1;jettySize=auto;html=1;exitX=0.5;exitY=1;exitDx=0;exitDy=0;entryX=0.5;entryY=0;entryDx=0;entryDy=0;fontSize=14;" parent="1" source="egUh28j0sGmAwzO6A7IN-7" target="egUh28j0sGmAwzO6A7IN-9" edge="1">
          <mxGeometry relative="1" as="geometry" />
        </mxCell>
        <mxCell id="u482HZDF_oLcWFl7m8r--3" value="&lt;font style=&quot;font-size: 14px;&quot;&gt;30%&lt;/font&gt;" style="edgeLabel;html=1;align=center;verticalAlign=middle;resizable=0;points=[];" parent="egUh28j0sGmAwzO6A7IN-28" vertex="1" connectable="0">
          <mxGeometry x="0.0728" y="-4" relative="1" as="geometry">
            <mxPoint x="16" y="-24" as="offset" />
          </mxGeometry>
        </mxCell>
        <mxCell id="egUh28j0sGmAwzO6A7IN-7" value="Разделение набора данных" style="rounded=0;whiteSpace=wrap;html=1;fontSize=14;" parent="1" vertex="1">
          <mxGeometry x="299" y="570" width="150" height="60" as="geometry" />
        </mxCell>
        <mxCell id="egUh28j0sGmAwzO6A7IN-24" style="edgeStyle=orthogonalEdgeStyle;rounded=0;orthogonalLoop=1;jettySize=auto;html=1;exitX=0.5;exitY=1;exitDx=0;exitDy=0;entryX=0.5;entryY=0;entryDx=0;entryDy=0;fontSize=14;" parent="1" source="egUh28j0sGmAwzO6A7IN-8" target="egUh28j0sGmAwzO6A7IN-10" edge="1">
          <mxGeometry relative="1" as="geometry" />
        </mxCell>
        <mxCell id="egUh28j0sGmAwzO6A7IN-8" value="Набору данных&lt;div style=&quot;font-size: 14px;&quot;&gt;для обучения&lt;/div&gt;" style="shape=parallelogram;perimeter=parallelogramPerimeter;whiteSpace=wrap;html=1;fixedSize=1;fontSize=14;" parent="1" vertex="1">
          <mxGeometry x="100" y="670" width="150" height="60" as="geometry" />
        </mxCell>
        <mxCell id="egUh28j0sGmAwzO6A7IN-29" style="edgeStyle=orthogonalEdgeStyle;rounded=0;orthogonalLoop=1;jettySize=auto;html=1;exitX=0.5;exitY=1;exitDx=0;exitDy=0;entryX=0.5;entryY=0;entryDx=0;entryDy=0;fontSize=14;" parent="1" source="egUh28j0sGmAwzO6A7IN-9" target="egUh28j0sGmAwzO6A7IN-14" edge="1">
          <mxGeometry relative="1" as="geometry">
            <Array as="points">
              <mxPoint x="595" y="930" />
              <mxPoint x="374" y="930" />
            </Array>
          </mxGeometry>
        </mxCell>
        <mxCell id="egUh28j0sGmAwzO6A7IN-9" value="Набору данных&lt;div style=&quot;font-size: 14px;&quot;&gt;для тестированя&lt;/div&gt;" style="shape=parallelogram;perimeter=parallelogramPerimeter;whiteSpace=wrap;html=1;fixedSize=1;fontSize=14;" parent="1" vertex="1">
          <mxGeometry x="520" y="670" width="150" height="60" as="geometry" />
        </mxCell>
        <mxCell id="egUh28j0sGmAwzO6A7IN-25" style="edgeStyle=orthogonalEdgeStyle;rounded=0;orthogonalLoop=1;jettySize=auto;html=1;exitX=0.5;exitY=1;exitDx=0;exitDy=0;entryX=0.5;entryY=0;entryDx=0;entryDy=0;fontSize=14;" parent="1" source="egUh28j0sGmAwzO6A7IN-10" target="egUh28j0sGmAwzO6A7IN-13" edge="1">
          <mxGeometry relative="1" as="geometry" />
        </mxCell>
        <mxCell id="egUh28j0sGmAwzO6A7IN-10" value="SVM" style="rounded=0;whiteSpace=wrap;html=1;fontSize=14;" parent="1" vertex="1">
          <mxGeometry x="100" y="760" width="150" height="60" as="geometry" />
        </mxCell>
        <mxCell id="egUh28j0sGmAwzO6A7IN-26" style="edgeStyle=orthogonalEdgeStyle;rounded=0;orthogonalLoop=1;jettySize=auto;html=1;exitX=0.5;exitY=1;exitDx=0;exitDy=0;entryX=0.5;entryY=0;entryDx=0;entryDy=0;fontSize=14;" parent="1" source="egUh28j0sGmAwzO6A7IN-13" target="egUh28j0sGmAwzO6A7IN-14" edge="1">
          <mxGeometry relative="1" as="geometry" />
        </mxCell>
        <mxCell id="egUh28j0sGmAwzO6A7IN-13" value="Обученный&lt;div style=&quot;font-size: 14px;&quot;&gt;классификатор&lt;/div&gt;" style="shape=parallelogram;perimeter=parallelogramPerimeter;whiteSpace=wrap;html=1;fixedSize=1;fontSize=14;" parent="1" vertex="1">
          <mxGeometry x="100" y="850" width="150" height="60" as="geometry" />
        </mxCell>
        <mxCell id="egUh28j0sGmAwzO6A7IN-14" value="Тестирование&lt;div style=&quot;font-size: 14px;&quot;&gt;классификатора&lt;/div&gt;" style="rounded=0;whiteSpace=wrap;html=1;fontSize=14;" parent="1" vertex="1">
          <mxGeometry x="299" y="950" width="150" height="60" as="geometry" />
        </mxCell>
        <mxCell id="egUh28j0sGmAwzO6A7IN-27" style="edgeStyle=orthogonalEdgeStyle;rounded=0;orthogonalLoop=1;jettySize=auto;html=1;exitX=0.5;exitY=1;exitDx=0;exitDy=0;entryX=0.5;entryY=0;entryDx=0;entryDy=0;entryPerimeter=0;fontSize=14;" parent="1" source="egUh28j0sGmAwzO6A7IN-14" target="9ibcDuXSDTYQnRMJRX7T-3" edge="1">
          <mxGeometry relative="1" as="geometry" />
        </mxCell>
        <mxCell id="e9AX7neEpSEPlqEUsB_L-5" style="edgeStyle=orthogonalEdgeStyle;rounded=0;orthogonalLoop=1;jettySize=auto;html=1;exitX=0.5;exitY=1;exitDx=0;exitDy=0;entryX=0.5;entryY=1;entryDx=0;entryDy=0;fontSize=14;" parent="1" source="u482HZDF_oLcWFl7m8r--1" target="egUh28j0sGmAwzO6A7IN-5" edge="1">
          <mxGeometry relative="1" as="geometry">
            <mxPoint x="374" y="350" as="sourcePoint" />
          </mxGeometry>
        </mxCell>
        <mxCell id="u482HZDF_oLcWFl7m8r--1" value="Очистка и предобработка текста" style="shape=process;whiteSpace=wrap;html=1;backgroundOutline=1;fontSize=14;" parent="1" vertex="1">
          <mxGeometry x="299" y="280" width="150" height="60" as="geometry" />
        </mxCell>
      </root>
    </mxGraphModel>
  </diagram>
  <diagram id="UfFq_Nmfl9kBScxc-zXa" name="Trang-2">
    <mxGraphModel dx="1328" dy="795" grid="1" gridSize="10" guides="1" tooltips="1" connect="1" arrows="1" fold="1" page="1" pageScale="1" pageWidth="827" pageHeight="1169" math="0" shadow="0">
      <root>
        <mxCell id="0" />
        <mxCell id="1" parent="0" />
        <mxCell id="NflMR_KIQjkLUv4TP-3d-1" value="Конец" style="strokeWidth=2;html=1;shape=mxgraph.flowchart.terminator;whiteSpace=wrap;fontSize=14;" parent="1" vertex="1">
          <mxGeometry x="264" y="690" width="180" height="60" as="geometry" />
        </mxCell>
        <mxCell id="tWzHGnDCyIXJInqPre_d-6" style="edgeStyle=orthogonalEdgeStyle;rounded=0;orthogonalLoop=1;jettySize=auto;html=1;exitX=0.5;exitY=1;exitDx=0;exitDy=0;exitPerimeter=0;entryX=0.5;entryY=0;entryDx=0;entryDy=0;" parent="1" source="jday6NLPPBy15D8EjWLK-1" target="jday6NLPPBy15D8EjWLK-5" edge="1">
          <mxGeometry relative="1" as="geometry" />
        </mxCell>
        <mxCell id="jday6NLPPBy15D8EjWLK-1" value="Начало" style="strokeWidth=2;html=1;shape=mxgraph.flowchart.terminator;whiteSpace=wrap;fontSize=14;" parent="1" vertex="1">
          <mxGeometry x="264" y="50" width="180" height="60" as="geometry" />
        </mxCell>
        <mxCell id="jday6NLPPBy15D8EjWLK-2" value="Очистка и предварительная&lt;div style=&quot;font-size: 14px;&quot;&gt;обработка текста&lt;/div&gt;&lt;div style=&quot;font-size: 14px;&quot;&gt;&lt;br style=&quot;font-size: 14px;&quot;&gt;&lt;/div&gt;&lt;div style=&quot;font-size: 14px;&quot;&gt;Входные данные: Текст&lt;/div&gt;&lt;div style=&quot;font-size: 14px;&quot;&gt;&lt;br style=&quot;font-size: 14px;&quot;&gt;&lt;/div&gt;&lt;div style=&quot;font-size: 14px;&quot;&gt;Выходные данные:&amp;nbsp;Текст&amp;nbsp;&lt;/div&gt;&lt;div style=&quot;font-size: 14px;&quot;&gt;предварительно обработан&lt;/div&gt;" style="strokeWidth=2;html=1;shape=mxgraph.flowchart.annotation_2;align=left;labelPosition=right;pointerEvents=1;fontSize=14;" parent="1" vertex="1">
          <mxGeometry x="470" y="30" width="50" height="100" as="geometry" />
        </mxCell>
        <mxCell id="jday6NLPPBy15D8EjWLK-3" style="edgeStyle=orthogonalEdgeStyle;rounded=0;orthogonalLoop=1;jettySize=auto;html=1;exitX=1;exitY=0.5;exitDx=0;exitDy=0;exitPerimeter=0;entryX=0;entryY=0.5;entryDx=0;entryDy=0;entryPerimeter=0;endArrow=none;endFill=0;dashed=1;dashPattern=12 12;fontSize=14;" parent="1" source="jday6NLPPBy15D8EjWLK-1" target="jday6NLPPBy15D8EjWLK-2" edge="1">
          <mxGeometry relative="1" as="geometry" />
        </mxCell>
        <mxCell id="tWzHGnDCyIXJInqPre_d-7" style="edgeStyle=orthogonalEdgeStyle;rounded=0;orthogonalLoop=1;jettySize=auto;html=1;exitX=0.5;exitY=1;exitDx=0;exitDy=0;entryX=0.5;entryY=0;entryDx=0;entryDy=0;" parent="1" source="jday6NLPPBy15D8EjWLK-5" target="jday6NLPPBy15D8EjWLK-6" edge="1">
          <mxGeometry relative="1" as="geometry" />
        </mxCell>
        <mxCell id="jday6NLPPBy15D8EjWLK-5" value="Преобразование текста в нижний регистр" style="rounded=0;whiteSpace=wrap;html=1;fontSize=14;" parent="1" vertex="1">
          <mxGeometry x="264" y="140" width="180" height="60" as="geometry" />
        </mxCell>
        <mxCell id="tWzHGnDCyIXJInqPre_d-8" style="edgeStyle=orthogonalEdgeStyle;rounded=0;orthogonalLoop=1;jettySize=auto;html=1;exitX=0.5;exitY=1;exitDx=0;exitDy=0;entryX=0.5;entryY=0;entryDx=0;entryDy=0;" parent="1" source="jday6NLPPBy15D8EjWLK-6" target="tWzHGnDCyIXJInqPre_d-1" edge="1">
          <mxGeometry relative="1" as="geometry" />
        </mxCell>
        <mxCell id="jday6NLPPBy15D8EjWLK-6" value="Удаление лишних пробелов" style="rounded=0;whiteSpace=wrap;html=1;fontSize=14;" parent="1" vertex="1">
          <mxGeometry x="264" y="230" width="180" height="60" as="geometry" />
        </mxCell>
        <mxCell id="tWzHGnDCyIXJInqPre_d-9" style="edgeStyle=orthogonalEdgeStyle;rounded=0;orthogonalLoop=1;jettySize=auto;html=1;exitX=0.5;exitY=1;exitDx=0;exitDy=0;entryX=0.5;entryY=0;entryDx=0;entryDy=0;" parent="1" source="tWzHGnDCyIXJInqPre_d-1" target="tWzHGnDCyIXJInqPre_d-5" edge="1">
          <mxGeometry relative="1" as="geometry" />
        </mxCell>
        <mxCell id="tWzHGnDCyIXJInqPre_d-1" value="Удаление всех небуквенно-цифровых символов, кроме пробелов" style="rounded=0;whiteSpace=wrap;html=1;fontSize=14;" parent="1" vertex="1">
          <mxGeometry x="264" y="320" width="180" height="60" as="geometry" />
        </mxCell>
        <mxCell id="tWzHGnDCyIXJInqPre_d-2" value="Лемматизация" style="rounded=0;whiteSpace=wrap;html=1;fontSize=14;" parent="1" vertex="1">
          <mxGeometry x="264" y="600" width="180" height="60" as="geometry" />
        </mxCell>
        <mxCell id="tWzHGnDCyIXJInqPre_d-11" style="edgeStyle=orthogonalEdgeStyle;rounded=0;orthogonalLoop=1;jettySize=auto;html=1;exitX=0.5;exitY=1;exitDx=0;exitDy=0;entryX=0.5;entryY=0;entryDx=0;entryDy=0;" parent="1" source="tWzHGnDCyIXJInqPre_d-4" target="tWzHGnDCyIXJInqPre_d-2" edge="1">
          <mxGeometry relative="1" as="geometry" />
        </mxCell>
        <mxCell id="tWzHGnDCyIXJInqPre_d-4" value="Удаление стоп-слов" style="rounded=0;whiteSpace=wrap;html=1;fontSize=14;" parent="1" vertex="1">
          <mxGeometry x="264" y="510" width="180" height="60" as="geometry" />
        </mxCell>
        <mxCell id="tWzHGnDCyIXJInqPre_d-10" style="edgeStyle=orthogonalEdgeStyle;rounded=0;orthogonalLoop=1;jettySize=auto;html=1;exitX=0.5;exitY=1;exitDx=0;exitDy=0;entryX=0.5;entryY=0;entryDx=0;entryDy=0;" parent="1" source="tWzHGnDCyIXJInqPre_d-5" target="tWzHGnDCyIXJInqPre_d-4" edge="1">
          <mxGeometry relative="1" as="geometry" />
        </mxCell>
        <mxCell id="tWzHGnDCyIXJInqPre_d-5" value="Токенизация" style="rounded=0;whiteSpace=wrap;html=1;fontSize=14;" parent="1" vertex="1">
          <mxGeometry x="264" y="420" width="180" height="60" as="geometry" />
        </mxCell>
        <mxCell id="tWzHGnDCyIXJInqPre_d-12" style="edgeStyle=orthogonalEdgeStyle;rounded=0;orthogonalLoop=1;jettySize=auto;html=1;exitX=0.5;exitY=1;exitDx=0;exitDy=0;entryX=0.5;entryY=0;entryDx=0;entryDy=0;entryPerimeter=0;" parent="1" source="tWzHGnDCyIXJInqPre_d-2" target="NflMR_KIQjkLUv4TP-3d-1" edge="1">
          <mxGeometry relative="1" as="geometry" />
        </mxCell>
      </root>
    </mxGraphModel>
  </diagram>
  <diagram id="kJzQaxI-6qf1n354zHjH" name="Trang-3">
    <mxGraphModel dx="1328" dy="795" grid="1" gridSize="10" guides="1" tooltips="1" connect="1" arrows="1" fold="1" page="1" pageScale="1" pageWidth="827" pageHeight="1169" math="0" shadow="0">
      <root>
        <mxCell id="0" />
        <mxCell id="1" parent="0" />
        <mxCell id="Vi8o0KVzsKVbQ7J4FRpL-1" value="Конец" style="strokeWidth=2;html=1;shape=mxgraph.flowchart.terminator;whiteSpace=wrap;fontSize=14;" parent="1" vertex="1">
          <mxGeometry x="274" y="410" width="160" height="60" as="geometry" />
        </mxCell>
        <mxCell id="7sAicQPS0TUIHge_wqU--13" style="edgeStyle=orthogonalEdgeStyle;rounded=0;orthogonalLoop=1;jettySize=auto;html=1;exitX=0.5;exitY=1;exitDx=0;exitDy=0;exitPerimeter=0;entryX=0.5;entryY=0;entryDx=0;entryDy=0;fontSize=14;" parent="1" source="Vi8o0KVzsKVbQ7J4FRpL-2" target="7sAicQPS0TUIHge_wqU--10" edge="1">
          <mxGeometry relative="1" as="geometry" />
        </mxCell>
        <mxCell id="Vi8o0KVzsKVbQ7J4FRpL-2" value="Начало" style="strokeWidth=2;html=1;shape=mxgraph.flowchart.terminator;whiteSpace=wrap;fontSize=14;" parent="1" vertex="1">
          <mxGeometry x="274" y="50" width="160" height="60" as="geometry" />
        </mxCell>
        <mxCell id="Vi8o0KVzsKVbQ7J4FRpL-3" value="Метод извлечение&lt;div style=&quot;font-size: 14px;&quot;&gt;признаков из набор текстов&lt;/div&gt;&lt;div style=&quot;font-size: 14px;&quot;&gt;(TF - IDF)&lt;/div&gt;&lt;div style=&quot;font-size: 14px;&quot;&gt;&lt;br style=&quot;font-size: 14px;&quot;&gt;&lt;/div&gt;&lt;div style=&quot;font-size: 14px;&quot;&gt;Входные данные: Набор текстов&lt;/div&gt;&lt;div style=&quot;font-size: 14px;&quot;&gt;&lt;br style=&quot;font-size: 14px;&quot;&gt;&lt;/div&gt;&lt;div style=&quot;font-size: 14px;&quot;&gt;Выходные данные: Матрица векторов&amp;nbsp;&lt;/div&gt;&lt;div style=&quot;font-size: 14px;&quot;&gt;TF - IDF&lt;/div&gt;" style="strokeWidth=2;html=1;shape=mxgraph.flowchart.annotation_2;align=left;labelPosition=right;pointerEvents=1;fontSize=14;" parent="1" vertex="1">
          <mxGeometry x="510" y="20" width="50" height="120" as="geometry" />
        </mxCell>
        <mxCell id="Vi8o0KVzsKVbQ7J4FRpL-4" style="edgeStyle=orthogonalEdgeStyle;rounded=0;orthogonalLoop=1;jettySize=auto;html=1;exitX=1;exitY=0.5;exitDx=0;exitDy=0;exitPerimeter=0;entryX=0;entryY=0.5;entryDx=0;entryDy=0;entryPerimeter=0;endArrow=none;endFill=0;dashed=1;dashPattern=12 12;fontSize=14;" parent="1" source="Vi8o0KVzsKVbQ7J4FRpL-2" target="Vi8o0KVzsKVbQ7J4FRpL-3" edge="1">
          <mxGeometry relative="1" as="geometry" />
        </mxCell>
        <mxCell id="7sAicQPS0TUIHge_wqU--14" style="edgeStyle=orthogonalEdgeStyle;rounded=0;orthogonalLoop=1;jettySize=auto;html=1;exitX=0.5;exitY=1;exitDx=0;exitDy=0;entryX=0.5;entryY=0;entryDx=0;entryDy=0;fontSize=14;" parent="1" source="7sAicQPS0TUIHge_wqU--10" target="7sAicQPS0TUIHge_wqU--11" edge="1">
          <mxGeometry relative="1" as="geometry" />
        </mxCell>
        <mxCell id="7sAicQPS0TUIHge_wqU--10" value="Создать список уникальных слов из набора текста" style="rounded=0;whiteSpace=wrap;html=1;fontSize=14;" parent="1" vertex="1">
          <mxGeometry x="274" y="140" width="160" height="60" as="geometry" />
        </mxCell>
        <mxCell id="7sAicQPS0TUIHge_wqU--15" style="edgeStyle=orthogonalEdgeStyle;rounded=0;orthogonalLoop=1;jettySize=auto;html=1;exitX=0.5;exitY=1;exitDx=0;exitDy=0;entryX=0.5;entryY=0;entryDx=0;entryDy=0;fontSize=14;" parent="1" source="7sAicQPS0TUIHge_wqU--11" target="7sAicQPS0TUIHge_wqU--12" edge="1">
          <mxGeometry relative="1" as="geometry" />
        </mxCell>
        <mxCell id="7sAicQPS0TUIHge_wqU--11" value="Вычислить значения IDF для всех уникальных слов" style="rounded=0;whiteSpace=wrap;html=1;fontSize=14;" parent="1" vertex="1">
          <mxGeometry x="274" y="230" width="160" height="60" as="geometry" />
        </mxCell>
        <mxCell id="7sAicQPS0TUIHge_wqU--12" value="Вычислить векторы TF-IDF для каждого текста" style="rounded=0;whiteSpace=wrap;html=1;fontSize=14;" parent="1" vertex="1">
          <mxGeometry x="274" y="320" width="160" height="60" as="geometry" />
        </mxCell>
        <mxCell id="7sAicQPS0TUIHge_wqU--16" style="edgeStyle=orthogonalEdgeStyle;rounded=0;orthogonalLoop=1;jettySize=auto;html=1;exitX=0.5;exitY=1;exitDx=0;exitDy=0;entryX=0.5;entryY=0;entryDx=0;entryDy=0;entryPerimeter=0;fontSize=14;" parent="1" source="7sAicQPS0TUIHge_wqU--12" target="Vi8o0KVzsKVbQ7J4FRpL-1" edge="1">
          <mxGeometry relative="1" as="geometry" />
        </mxCell>
      </root>
    </mxGraphModel>
  </diagram>
  <diagram id="BZlQgIRPDhMctDFD3nxF" name="Trang-4">
    <mxGraphModel dx="531" dy="318" grid="1" gridSize="10" guides="1" tooltips="1" connect="1" arrows="1" fold="1" page="1" pageScale="1" pageWidth="827" pageHeight="1169" math="0" shadow="0">
      <root>
        <mxCell id="0" />
        <mxCell id="1" parent="0" />
        <mxCell id="TaXu4Q9rsexlMCsvknQT-1" value="Очистка и предобработка текст&lt;span style=&quot;background-color: initial;&quot;&gt;ов&lt;/span&gt;&lt;div&gt;&lt;br&gt;&lt;div style=&quot;text-align: right;&quot;&gt;А1&lt;/div&gt;&lt;/div&gt;" style="rounded=0;whiteSpace=wrap;html=1;verticalAlign=middle;" parent="1" vertex="1">
          <mxGeometry x="80" y="40" width="120" height="78" as="geometry" />
        </mxCell>
        <mxCell id="jioPALXJGGbHC4YNm06Q-2" value="" style="endArrow=classic;html=1;rounded=0;entryX=0;entryY=0.5;entryDx=0;entryDy=0;" edge="1" parent="1" target="TaXu4Q9rsexlMCsvknQT-1">
          <mxGeometry width="50" height="50" relative="1" as="geometry">
            <mxPoint x="10" y="80" as="sourcePoint" />
            <mxPoint x="450" y="383" as="targetPoint" />
          </mxGeometry>
        </mxCell>
        <mxCell id="jioPALXJGGbHC4YNm06Q-6" value="Набор данных" style="text;html=1;align=center;verticalAlign=middle;whiteSpace=wrap;rounded=0;" vertex="1" parent="1">
          <mxGeometry x="10" y="45" width="60" height="30" as="geometry" />
        </mxCell>
        <mxCell id="jioPALXJGGbHC4YNm06Q-7" value="" style="rounded=0;whiteSpace=wrap;html=1;" vertex="1" parent="1">
          <mxGeometry x="251" y="160" width="120" height="60" as="geometry" />
        </mxCell>
      </root>
    </mxGraphModel>
  </diagram>
</mxfile>
